# xmcd CD database file
#
# Track frame offsets:
#	150
#	20334
#	40683
#	55807
#	74688
#	96310
#	117719
#	138761
#	156475
#	171483
#
# Disc length: 2531 seconds
#
# Revision: 2
# Processed by: cddbd v1.5.1PL2 Copyright (c) Steve Scherf et al.
# Submitted via: CDex 1.51
#
DISCID=9109e10a
DTITLE=Leo - Prokleta ljubav
DYEAR=2005
DGENRE=Narodne
TTITLE0=Kad strasti nestane
TTITLE1=Prokleta ljubav
TTITLE2=Udji, udji
TTITLE3=Ne mogu se smiriti
TTITLE4=Ako varas
TTITLE5=To vodu ne pije
TTITLE6=Necu, necu
TTITLE7=Atmosfera
TTITLE8=Spava ti se
TTITLE9=Ona ko da zna
EXTD=YEAR: 2005
EXTT0=
EXTT1=
EXTT2=
EXTT3=
EXTT4=
EXTT5=
EXTT6=
EXTT7=
EXTT8=
EXTT9=
PLAYORDER=
